<svg id="Layer_1" data-name="Layer 1" xmlns="http://www.w3.org/2000/svg" width="99.5" height="99.5" viewBox="0 0 99.5 99.5">
  <defs>
    <style>
      .cls-1 {
        fill: #0c233f;
      }

      .cls-2 {
        fill: #00a8e1;
      }

      .cls-3 {
        fill: #f5a81c;
      }

      .cls-4 {
        fill: #fff;
      }
    </style>
  </defs>
  <path class="cls-1" d="M49.75,0H96.18A3.32,3.32,0,0,1,99.5,3.32V49.75a0,0,0,0,1,0,0H49.75a0,0,0,0,1,0,0V0A0,0,0,0,1,49.75,0Z"/>
  <path class="cls-2" d="M86.58,11.64v5h-9v22H72.17v-22h-9v-5Z" transform="translate(-0.25 -0.25)"/>
  <path class="cls-3" d="M3.32,0H49.75a0,0,0,0,1,0,0V99.5a0,0,0,0,1,0,0H3.32A3.32,3.32,0,0,1,0,96.18V3.32A3.32,3.32,0,0,1,3.32,0Z"/>
  <g>
    <path class="cls-4" d="M25.11,24.92l-7.27-7V31.55H13V7.27H14.1l11,11.15,11-11.15h1.13V31.55H32.41V17.89Z" transform="translate(-0.25 -0.25)"/>
    <path class="cls-4" d="M13,37.86h5.77v9.72l9.65-9.72h6.52L23.56,49.17l13.72,13H29.73l-11-10.48V62.14H13Z" transform="translate(-0.25 -0.25)"/>
    <path class="cls-4" d="M13,92.73V68.45H37.28V73H19.61v5.21H32.85v4.51H19.61v5.5H37.24v4.55Z" transform="translate(-0.25 -0.25)"/>
  </g>
  <path class="cls-2" d="M49.75,49.75H99.5a0,0,0,0,1,0,0V96.18a3.32,3.32,0,0,1-3.32,3.32H49.75a0,0,0,0,1,0,0V49.75A0,0,0,0,1,49.75,49.75Z"/>
  <path class="cls-1" d="M63.38,88.38v-27H73.77c8.4,0,12.6,4.49,12.6,13.52s-4.2,13.49-12.6,13.49Zm10.39-5c4.79,0,7.19-3.1,7.22-8.48s-2.43-8.47-7.22-8.47h-5v17Z" transform="translate(-0.25 -0.25)"/>
</svg>
