<svg id="Layer_1" data-name="Layer 1" xmlns="http://www.w3.org/2000/svg" width="39.5" height="39.5" viewBox="0 0 39.5 39.5">
  <defs>
    <style>
      .cls-1 {
        fill: #0c233f;
      }

      .cls-2 {
        fill: #00a8e1;
      }

      .cls-3 {
        fill: #f5a81c;
      }

      .cls-4 {
        fill: #fff;
      }
    </style>
  </defs>
  <path class="cls-1" d="M19.75,0H38.18A1.32,1.32,0,0,1,39.5,1.32V19.75a0,0,0,0,1,0,0H19.75a0,0,0,0,1,0,0V0A0,0,0,0,1,19.75,0Z"/>
  <path class="cls-2" d="M34.52,4.77v2H31v8.72H28.8V6.76H25.23v-2Z" transform="translate(-0.25 -0.25)"/>
  <path class="cls-3" d="M1.32,0H19.75a0,0,0,0,1,0,0V39.5a0,0,0,0,1,0,0H1.32A1.32,1.32,0,0,1,0,38.18V1.32A1.32,1.32,0,0,1,1.32,0Z"/>
  <g>
    <path class="cls-4" d="M10.12,10,7.23,7.25v5.43H5.3V3h.45l4.37,4.42L14.5,3H15v9.64H13V7.25Z" transform="translate(-0.25 -0.25)"/>
    <path class="cls-4" d="M5.3,15.18H7.59V19l3.83-3.86H14l-4.5,4.49L15,24.82H12L7.59,20.66v4.16H5.3Z" transform="translate(-0.25 -0.25)"/>
    <path class="cls-4" d="M5.3,37V27.32H15v1.79h-7v2.07h5.25V33H7.94v2.19h7V37Z" transform="translate(-0.25 -0.25)"/>
  </g>
  <path class="cls-2" d="M19.75,19.75H39.5a0,0,0,0,1,0,0V38.18a1.32,1.32,0,0,1-1.32,1.32H19.75a0,0,0,0,1,0,0V19.75A0,0,0,0,1,19.75,19.75Z"/>
  <path class="cls-1" d="M25.31,35.24V24.51h4.13q5,0,5,5.37t-5,5.36Zm4.13-2c1.9,0,2.85-1.23,2.86-3.37s-1-3.36-2.86-3.36h-2v6.73Z" transform="translate(-0.25 -0.25)"/>
</svg>
